Coordinates
version=1
nRows=18
nColumns=22
inDegrees=yes

Units are S.I. units (second, meters, Newtons, ...)
If the header above contains a line with 'inDegrees', this indicates whether rotational values are in degrees (yes) or radians (no).

endheader
time	pelvis_tilt	pelvis_list	pelvis_rotation	pelvis_tx	pelvis_ty	pelvis_tz	hip_flexion_r	hip_adduction_r	hip_rotation_r	knee_angle_r	ankle_angle_r	subtalar_angle_r	hip_flexion_l	hip_adduction_l	hip_rotation_l	knee_angle_l	ankle_angle_l	subtalar_angle_l	lumbar_extension	lumbar_bending	lumbar_rotation
      1.83000000	     -0.27318944	     -1.81494088	     27.97279934	      0.63853329	      0.93292672	      0.86870093	     16.77353254	     -3.48424204	      1.65928563	    -69.33128963	      5.32209322	      5.72432522	     20.09566293	      7.21756241	     -3.84427953	    -28.28778177	      7.50297282	    -14.05166020	     -3.06474072	      1.55231150	    -10.26506747
      1.84000000	     -0.21622299	     -1.58972488	     29.04240466	      0.64512066	      0.93397428	      0.86087694	     18.09467043	     -3.33985769	      2.14729671	    -69.61400410	      6.29217472	      4.93672185	     18.79109918	      7.91132656	     -2.96642942	    -27.47600328	      7.74612271	    -14.31888055	     -3.11138304	      1.38096063	    -10.69082470
      1.85000000	     -0.15144908	     -1.37821234	     30.13108078	      0.65162503	      0.93495844	      0.85306145	     19.36443174	     -3.16036738	      2.65466081	    -69.69500228	      7.14098448	      4.22800588	     17.46553967	      8.55527243	     -2.02482088	    -26.65598418	      7.95593718	    -14.56613459	     -3.16823226	      1.22908482	    -11.12825143
      1.86000000	     -0.07631443	     -1.17615356	     31.23112399	      0.65808341	      0.93585296	      0.84526043	     20.57025836	     -2.94869214	      3.17556190	    -69.57598000	      7.90644816	      3.50337611	     16.12526518	      9.13420574	     -1.09303492	    -25.84600324	      8.21565107	    -14.83141231	     -3.23592519	      1.09541686	    -11.60012656
      1.87000000	      0.01348523	     -0.98749391	     32.36509817	      0.66444948	      0.93667472	      0.83746013	     21.70890181	     -2.70436850	      3.69046123	    -69.26064977	      8.55339545	      2.96941611	     14.77308991	      9.66134734	     -0.06861412	    -25.05542654	      8.42502383	    -15.04925030	     -3.32106529	      0.98323210	    -12.09939537
      1.88000000	      0.11585976	     -0.79939671	     33.51497550	      0.67077727	      0.93739982	      0.82967689	     22.77365781	     -2.43987166	      4.20336361	    -68.76000122	      9.11372173	      2.48768406	     13.40804992	     10.13104833	      0.97072766	    -24.28860352	      8.66268716	    -15.28005375	     -3.42404376	      0.87809611	    -12.62630897
      1.89000000	      0.22372169	     -0.61687492	     34.69074361	      0.67704500	      0.93802089	      0.82190505	     23.77214938	     -2.16210532	      4.70167130	    -68.07657192	      9.57976611	      2.14371110	     12.04019906	     10.55012744	      2.06648296	    -23.54721619	      8.88544909	    -15.49851079	     -3.53530981	      0.78277105	    -13.18989713
      1.90000000	      0.32315660	     -0.43548846	     35.88653769	      0.68326940	      0.93851341	      0.81413972	     24.71261450	     -1.88816714	      5.18468691	    -67.21832902	      9.95435869	      1.92819538	     10.68348206	     10.92787988	      3.19958783	    -22.83604632	      9.11081313	    -15.71444526	     -3.64152536	      0.68454644	    -13.78985054
      1.91000000	      0.45465622	     -0.24836861	     37.08590127	      0.68946850	      0.93893529	      0.80644034	     25.55369698	     -1.57946478	      5.67567849	    -66.18803355	     10.22965717	      1.78835938	      9.29982340	     11.24353552	      4.39259371	    -22.15636329	      9.32132587	    -15.96139265	     -3.79147381	      0.59948490	    -14.38917115
      1.92000000	      0.57542639	     -0.06795097	     38.28478165	      0.69564779	      0.93921957	      0.79876826	     26.33535359	     -1.26914945	      6.16214369	    -64.98275790	     10.41297125	      1.75682748	      7.93890146	     11.51262994	      5.61156303	    -21.51258193	      9.53221898	    -16.21564796	     -3.92886814	      0.51698691	    -14.98653708
      1.93000000	      0.72122496	      0.11916881	     39.45888323	      0.70183357	      0.93943033	      0.79116215	     27.01103974	     -0.92655590	      6.67802117	    -63.59605858	     10.50326655	      1.83724966	      6.56040143	     11.71922109	      6.84339498	    -20.89648721	      9.73829851	    -16.51571800	     -4.09938528	      0.44572585	    -15.53875501
      1.94000000	      0.84315588	      0.28425489	     40.61837918	      0.70800383	      0.93947846	      0.78358881	     27.64140958	     -0.58288453	      7.19901191	    -62.03314885	     10.50133324	      2.04164919	      5.23635721	     11.87466299	      8.06926354	    -20.32157544	      9.95460358	    -16.79461048	     -4.23295683	      0.37990171	    -16.07838034
      1.95000000	      0.95933359	      0.43988070	     41.73899761	      0.71418738	      0.93940453	      0.77606127	     28.19886129	     -0.23107463	      7.74944378	    -60.29003089	     10.40262570	      2.38842441	      3.94217128	     11.97721268	      9.25980652	    -19.78043505	     10.19154789	    -17.07569936	     -4.35511972	      0.31783052	    -16.56631401
      1.96000000	      1.05738813	      0.57009969	     42.82336103	      0.72037232	      0.93917862	      0.76855522	     28.70091633	      0.11787630	      8.31524956	    -58.36607688	     10.21825624	      2.83117208	      2.70939926	     12.02865747	     10.40127234	    -19.28628827	     10.45496030	    -17.32857507	     -4.44137840	      0.26551011	    -17.01948834
      1.97000000	      1.15326040	      0.69494783	     43.83719187	      0.72657534	      0.93883563	      0.76111414	     29.12332668	      0.47190115	      8.93581113	    -56.26740578	      9.95735285	      3.44773366	      1.52029328	     12.04194054	     11.48627502	    -18.84757844	     10.74198854	    -17.58586784	     -4.53044098	      0.21204483	    -17.36532711
      1.98000000	      1.22829473	      0.79274033	     44.80091341	      0.73278696	      0.93833235	      0.75365497	     29.49022194	      0.79948703	      9.55514227	    -53.99411309	      9.64260223	      4.10720992	      0.40415673	     12.02058733	     12.49697404	    -18.46380930	     11.05714078	    -17.81316533	     -4.57647662	      0.16980454	    -17.67278002
      1.99000000	      1.29353843	      0.87346753	     45.70348132	      0.73899775	      0.93768625	      0.74617903	     29.78798785	      1.09665192	     10.17040306	    -51.55630280	      9.30135896	      4.78806289	     -0.64983396	     11.97478824	     13.43032522	    -18.14100826	     11.38852076	    -18.02744825	     -4.60363009	      0.13854488	    -17.92276890
      2.00000000	      1.35189259	      0.94012582	     46.54793074	      0.74519275	      0.93690208	      0.73866479	     30.01350345	      1.35121329	     10.75917117	    -48.96512274	      8.95257034	      5.45427610	     -1.64357550	     11.91377469	     14.28538034	    -17.88607113	     11.72902440	    -18.24122062	     -4.61678858	      0.12036926	    -18.12538698
